<?xml version="1.0" encoding="UTF-8"?>
<svg id="Layer_1" xmlns="http://www.w3.org/2000/svg" version="1.1" viewBox="0 0 1685 566.6">
  <!-- Generator: Adobe Illustrator 29.5.1, SVG Export Plug-In . SVG Version: 2.1.0 Build 141)  -->
  <defs>
    <style>
      .st0 {
        opacity: .5;
      }

      .st0, .st1, .st2 {
        fill: #1096ff;
      }

      .st0, .st2 {
        isolation: isolate;
      }

      .st2 {
        opacity: .3;
      }

      .st3 {
        fill: #fff;
        stroke: #1096ff;
        stroke-linecap: round;
        stroke-linejoin: round;
        stroke-width: 12px;
      }
    </style>
  </defs>
  <path class="st1" d="M467.1,428.3c33.5-.2,63.4-10.8,89.3-32.1,4.4-3.6,6.7-2.9,10.6.3,25.6,20.8,55,31.6,88,31.7,112.5.4,225,.7,337.4.9,26.4,0,52.7,0,79.1-.5,11.6-.2,15-6.9,9.3-17-10.7-18.9-21.3-37.7-32.5-56.3-7-11.6-17.3-19.2-30.9-22-12-2.4-24.1-1.8-36.1-1.8-49.6-.2-99.2,0-148.8,0v.6c-58,0-116.1-.2-174.2,0-28.5.1-49.4-23.7-48.4-48.4,1.2-29.9,0-60-.2-89.9-.1-12.7-7.5-16.9-18.5-10.6-17.7,10.2-35.3,20.6-53,30.8-17.2,9.9-25.5,24.9-25.4,44.6,0,9.2,0,18.4,0,27.6-.2,23.1-17,42.1-39.8,45-2.9.4-7.2.6-12.4.7-14.6.4-29.2-2.1-43-6.9-.1,0-.2,0-.3-.1-6.6-2-7.9-4.6-5.4-11.2,15.1-40.3,29.6-80.8,44.4-121.3,4.8-13-.2-19-14-16.6-18,3.1-36,6.9-54.1,9.2-24.3,3.1-38.7,16.4-47,39-36.1,98.3-72.7,196.4-109.1,294.6-4.5,12.2.4,18.2,13.3,16,19.3-3.2,38.5-6.4,57.8-9.6,21.3-3.6,35.5-15,43-35.8,8.4-23.4,18.3-46.3,25.8-70.1,1.9-5.9,4.1-7.5,10.3-5,.1,0,.4.2.8.3,23.7,9.1,48.9,13.8,74.3,13.7h9.6s0,0,0,0Z"/>
  <path class="st1" d="M279.6,275.5c3.9-10.7,8.1-21.2,10.4-32.4,8.7-41.4.9-79.8-23.3-114.1-35.6-50.4-100.5-72.1-158.4-53.8-43.7,13.8-74.5,41.9-91.7,84-12.3,30.1-13.6,61.1-4.3,92.7,11.3,38.5,34.4,67.2,69.4,86.5,17.7,9.7,37.2,15.1,55.9,22.2,4.7,1.8,5.6,3.7,3.8,8.5-12.7,34.2-25.2,68.6-37.6,102.9-4.2,11.4.8,17.3,13,15.2,20.4-3.4,40.8-7,61.2-10.5,18.9-3.2,31.9-13.8,38.6-31.8,11.6-31,23.1-62.1,34.7-93.2h0c9.4-25.4,19-50.7,28.3-76.2h0ZM187.5,246.3c-2.7,7.2-5.5,14.4-8,21.7-1.2,3.4-2.8,4.7-6.4,3.2-15.2-6.2-31.2-10.4-45.8-18-22.1-11.5-30.4-37.8-19.7-61.5,9.7-21.3,35.4-31.2,57.8-24,24,7.8,38.7,37.1,28.2,62.2-2.2,5.4-4.1,10.9-6.1,16.3h0Z"/>
  <path class="st1" d="M502.8,100.9c.1-31.5,24.7-56,56-55.8,31.2.2,55.8,25.4,55.6,56.4-.1,31.3-27,56.2-57.4,55.5-30-.8-54.3-25.3-54.2-56.1h0Z"/>
  <g>
    <path class="st0" d="M1453.2,408.8h0c-3.7,5.6-7.4,11.4-11.3,17.1-7,10.5-17.3,25.5-36.5,35.7-14.7,7.9-31.7,11.2-51.1,10.3-34.5-1.5-68.9-3-103.4-4.6-23.1-1.1-29.4-13.2-17.1-32.6,49.3-77.8,98.6-155.5,147.9-233.2l144.2,91.6c-4.5,7-9.1,14.1-13.6,21.1-1.9,3.3-4,6.7-6.1,10.2-13.9,23.2-31.9,52.3-52.9,84.4h0Z"/>
    <path class="st1" d="M1524.1,297.4c-15.2,23.6-30.4,47.2-45.6,70.9-7,10.4-17.3,25.1-36.1,35.1-14.7,7.9-31.7,11.2-51.1,10.3-34.5-1.5-68.9-3-103.4-4.6-23.1-1.1-29.4-13.2-17.1-32.6,62.2-98.1,124.5-196.2,186.7-294.4,21.6-28.4,49.5-42.2,87.9-38.9,32.2,2.7,64.7,2.7,97,4,12.4.5,20.1,3.8,23.2,9.5,4.3,8.1-2.2,19.4-5.1,24.3-5.5,9.2-16.1,26.5-30.9,50.2-26.7,41.6-53.5,83.1-80.2,124.7-7.1,12-15.6,26-25.2,41.5h0Z"/>
    <path class="st2" d="M1583,204.9c-18.9,29.5-37.9,58.9-56.8,88.4-6.7,10.4-13.4,20.8-20.1,31.2-10.3,16-20.6,32.1-31,48.2-6.3,10.6-13.7,22.8-21.9,36.2h0c-13.8,22.4-30.1,48.1-48.4,75.5-7,10.5-17.3,25.5-36.5,35.7-14.7,7.8-31.7,11.2-51.1,10.3-34.5-1.5-68.9-3-103.4-4.6-23.1-1.1-29.4-13.2-17.1-32.6,61.6-97.2,123.4-194.4,185-291.7"/>
  </g>
  <line class="st3" x1="781.9" y1="535.2" x2="952.5" y2="487.6"/>
</svg>