<?xml version="1.0" encoding="UTF-8"?>
<svg id="Layer_1" data-name="Layer 1" xmlns="http://www.w3.org/2000/svg" viewBox="0 0 567.39 567.87">
  <defs>
    <style>
      .cls-1, .cls-2, .cls-3 {
        fill: #1096ff;
      }

      .cls-2 {
        opacity: .3;
      }

      .cls-3 {
        opacity: .5;
      }
    </style>
  </defs>
  <path class="cls-2" d="M375.59,294.32c9.27-14.96,17.43-28.46,24.3-40,25.76-40.05,51.53-80.11,77.28-120.17-21.21,33.97-51.33,81.67-87.29,137.95-4.76,7.4-9.53,14.82-14.29,22.22Z"/>
  <path class="cls-2" d="M432.37,205.21c-18.25,28.39-36.53,56.79-54.78,85.19-6.43,10.01-12.88,20.03-19.33,30.04-9.94,15.47-19.89,30.94-29.84,46.4-6.08,10.21-13.17,21.97-21.14,34.9l-.02,.03c-13.28,21.55-29.02,46.35-46.64,72.73-6.73,10.07-16.69,24.58-35.16,34.42-14.18,7.56-30.55,10.77-49.25,9.95-33.22-1.45-66.44-2.85-99.65-4.44-22.26-1.06-28.35-12.73-16.49-31.45,59.37-93.71,118.87-187.34,178.23-281.06"/>
  <path class="cls-2" d="M238.36,201.97l138.91,88.23c30.28-47.08,60.58-94.17,90.85-141.26"/>
  <path class="cls-3" d="M307.28,401.74l-.02,.03c-3.55,5.4-7.17,10.9-10.89,16.46-6.73,10.07-16.69,24.58-35.16,34.42-14.18,7.56-30.55,10.77-49.25,9.95-33.22-1.45-66.44-2.85-99.65-4.44-22.26-1.06-28.35-12.73-16.49-31.45,47.48-74.94,95.04-149.82,142.54-224.74l138.91,88.23c-4.36,6.8-8.72,13.58-13.1,20.36-1.87,3.15-3.85,6.45-5.91,9.88-13.42,22.32-30.74,50.4-50.98,81.3Z"/>
  <path class="cls-1" d="M375.59,294.32c-14.64,22.77-29.27,45.51-43.9,68.27-6.72,10.03-16.66,24.16-34.76,33.81-14.18,7.56-30.55,10.77-49.25,9.95-33.22-1.45-66.44-2.85-99.65-4.44-22.25-1.07-28.35-12.73-16.49-31.45,59.92-94.57,119.97-189.07,179.87-283.65,20.84-27.4,47.66-40.61,84.68-37.47,31.04,2.62,62.3,2.57,93.46,3.81,11.92,.48,19.41,3.64,22.34,9.2,4.13,7.84-2.11,18.67-4.95,23.46-5.28,8.89-15.51,25.52-29.76,48.33-25.75,40.06-51.52,80.12-77.28,120.17-6.86,11.54-15.03,25.05-24.3,40Z"/>
  <path class="cls-1" d="M375.59,294.32c-12.59,20.33-27.25,43.32-43.5,67.66-.13,.2-.27,.4-.4,.61,14.63-22.76,29.27-45.5,43.9-68.27Z"/>
</svg>